# xmcd
#
# Track frame offsets:
#	150
#	20475
#	36375
#	53700
#	73201
#	93001
#	119101
#	139726
#	154876
#	175726
#	189750
#	208574
#	225001
#	248776
#
# Disc length: 3633 seconds
#
# Revision: 1
# Processed by: cddbd v1.5.2PL0 Copyright (c) Steve Scherf et al.
# Submitted via: audiograbber 1.83.01
#
DISCID=b70e2f0e
DTITLE=Waz e James - Noisy Trucks
DYEAR=2011
DGENRE=Country
TTITLE0=Noisy Trucks
TTITLE1=Car Wreck
TTITLE2=All Night Long
TTITLE3=Angels
TTITLE4=Nothing I Can Say
TTITLE5=Hair of the Dog
TTITLE6=All i Ever Want
TTITLE7=Headlights
TTITLE8=Back Again
TTITLE9=Ruby
TTITLE10=Shiloh Baghdad
TTITLE11=Hell for Leather
TTITLE12=Alcohol and Pills
TTITLE13=River Boat Queen
EXTD=
EXTT0=
EXTT1=
EXTT2=
EXTT3=
EXTT4=
EXTT5=
EXTT6=
EXTT7=
EXTT8=
EXTT9=
EXTT10=
EXTT11=
EXTT12=
EXTT13=
PLAYORDER=
